<svg xmlns="http://www.w3.org/2000/svg" viewBox="0 0 1200 420" role="img" aria-label="SLB fan feedback dashboard illustration">
  <defs>
    <linearGradient id="bg" x1="0" y1="0" x2="1" y2="1">
      <stop offset="0" stop-color="#111"/>
      <stop offset="0.55" stop-color="#231515"/>
      <stop offset="1" stop-color="#612217"/>
    </linearGradient>
    <pattern id="grain" width="28" height="28" patternUnits="userSpaceOnUse">
      <path d="M0 28L28 0" stroke="#f0d78c" stroke-width="1" opacity="0.18"/>
    </pattern>
  </defs>
  <rect width="1200" height="420" rx="22" fill="url(#bg)"/>
  <rect width="1200" height="420" rx="22" fill="url(#grain)"/>
  <g transform="translate(78 72)">
    <rect width="285" height="245" rx="16" fill="#0d0d0d" stroke="#f0d78c" stroke-width="3"/>
    <path d="M42 58h200v126H42z" fill="#e85d3a"/>
    <path d="M42 121h200M142 58v126" stroke="#0d0d0d" stroke-width="10"/>
    <circle cx="142" cy="121" r="32" fill="none" stroke="#0d0d0d" stroke-width="10"/>
    <path d="M74 33h136v28H74zM74 183h136v28H74z" fill="#f0d78c"/>
  </g>
  <g transform="translate(445 84)" fill="none" stroke-linecap="round">
    <path d="M0 0h560" stroke="#f0d78c" stroke-width="8"/>
    <path d="M0 72h420" stroke="#fff" stroke-width="18"/>
    <path d="M0 128h500" stroke="#fff" stroke-width="18" opacity="0.72"/>
    <path d="M0 204h155M192 204h155M384 204h155" stroke="#e85d3a" stroke-width="38"/>
  </g>
  <text x="445" y="356" fill="#f0d78c" font-family="Arial, Helvetica, sans-serif" font-size="28" font-weight="800" letter-spacing="6">AUDIENCE-SPECIFIC POST-EVENT SURVEYS</text>
</svg>
